<svg version="1.1" preserveAspectRatio="none" xmlns="http://www.w3.org/2000/svg" width="500" height="500" viewBox="0 0 500 500"><rect width="100%" height="100%" fill="#FFFFFF" fill-opacity="1"/><svg viewBox="-40.1976 140.6805 637.0213 140" width="333" height="73.18436604867058" x="83.5px" y="213.4078px" xmlns="http://www.w3.org/2000/svg" xmlns:xlink="http://www.w3.org/1999/xlink" preserveAspectRatio="none"><defs></defs><style>.companyName {fill:#182145;fill-opacity:1;}.icon1 {fill:#182145;fill-opacity:1;}.icon2 {fill:#E35B34;fill-opacity:1;}.icon3 {fill:#E3D454;fill-opacity:1;}.icon3-str {stroke:#E3D454;stroke-opacity:1;}.text {fill:#182145;fill-opacity:1;}</style><g opacity="1" transform="rotate(0 -40.1976 140.6805)">
<svg width="191.2514" height="140" x="-40.1976" y="140.6805" version="1.1" preserveAspectRatio="none" viewBox="5.253684997558594 13.351043701171875 90.45111083984375 66.21207427978516">
  <g transform="matrix(1 0 0 1 0 0)" class="icon1"><path d="M58.0088425,57.2452354c0,0-50.2152367-7.5721397-25.1076202-14.3472099c0,0-46.2298965,7.5721397-19.129612,15.1442795  s53.4035072,14.7457428,22.7164154,21.520813C36.4880257,79.563118,120.5786209,69.2012482,58.0088425,57.2452354z"></path><path d="M93.8768692,52.8613663C87.5003281,48.87603,76.3413849,36.9200211,70.3633804,22.9713459  s-7.1736031-11.1589422-13.9486732-1.5941353s-5.1809387,13.9486752-11.1589394,7.173605  s-7.5721397,13.5501442-7.5721397,13.5501442s-23.513485,5.1809349,19.5281448,11.5574722  c28.635067,4.2422066,32.7511253,6.5440865,32.2986412,7.6096992  C92.6293564,59.6842117,98.7717514,55.9207153,93.8768692,52.8613663z"></path></g>
</svg>
</g><g opacity="1" transform="rotate(0 181.0538 140.6805)">
<svg width="359.4302" height="100" x="181.0538" y="140.6805" version="1.1" preserveAspectRatio="none" viewBox="1.12 -28.48 247.84 68.96000000000001">
  <g transform="matrix(1 0 0 1 0 0)" class="companyName"><path id="id-D6z1nYkh13" d="M25.92 0L18.96 0L13.56-7.80L13.24-7.80L7.60-7.80L7.60 0L1.12 0L1.12-28L13.24-28Q16.96-28 19.70-26.76Q22.44-25.52 23.92-23.24Q25.40-20.96 25.40-17.84L25.40-17.84Q25.40-14.72 23.90-12.46Q22.40-10.20 19.64-9L19.64-9L25.92 0ZM18.84-17.84Q18.84-20.20 17.32-21.46Q15.80-22.72 12.88-22.72L12.88-22.72L7.60-22.72L7.60-12.96L12.88-12.96Q15.80-12.96 17.32-14.24Q18.84-15.52 18.84-17.84L18.84-17.84Z M36.96-5.20L52.20-5.20L52.20 0L30.52 0L30.52-28L51.68-28L51.68-22.80L36.96-22.80L36.96-16.72L49.96-16.72L49.96-11.68L36.96-11.68L36.96-5.20Z M66.56 0.48Q63.24 0.48 60.14-0.42Q57.04-1.32 55.16-2.76L55.16-2.76L57.36-7.64Q59.16-6.32 61.64-5.52Q64.12-4.72 66.60-4.72L66.60-4.72Q69.36-4.72 70.68-5.54Q72-6.36 72-7.72L72-7.72Q72-8.72 71.22-9.38Q70.44-10.04 69.22-10.44Q68-10.84 65.92-11.32L65.92-11.32Q62.72-12.08 60.68-12.84Q58.64-13.60 57.18-15.28Q55.72-16.96 55.72-19.76L55.72-19.76Q55.72-22.20 57.04-24.18Q58.36-26.16 61.02-27.32Q63.68-28.48 67.52-28.48L67.52-28.48Q70.20-28.48 72.76-27.84Q75.32-27.20 77.24-26L77.24-26L75.24-21.08Q71.36-23.28 67.48-23.28L67.48-23.28Q64.76-23.28 63.46-22.40Q62.16-21.52 62.16-20.08L62.16-20.08Q62.16-18.64 63.66-17.94Q65.16-17.24 68.24-16.56L68.24-16.56Q71.44-15.80 73.48-15.04Q75.52-14.28 76.98-12.64Q78.44-11 78.44-8.20L78.44-8.20Q78.44-5.80 77.10-3.82Q75.76-1.84 73.08-0.68Q70.40 0.48 66.56 0.48L66.56 0.48Z M88.28 0L88.28-22.72L79.32-22.72L79.32-28L103.72-28L103.72-22.72L94.76-22.72L94.76 0L88.28 0Z M12.52 40.48Q9.20 40.48 6.10 39.58Q3 38.68 1.12 37.24L1.12 37.24L3.32 32.36Q5.12 33.68 7.60 34.48Q10.08 35.28 12.56 35.28L12.56 35.28Q15.32 35.28 16.64 34.46Q17.96 33.64 17.96 32.28L17.96 32.28Q17.96 31.28 17.18 30.62Q16.40 29.96 15.18 29.56Q13.96 29.16 11.88 28.68L11.88 28.68Q8.68 27.92 6.64 27.16Q4.60 26.40 3.14 24.72Q1.68 23.04 1.68 20.24L1.68 20.24Q1.68 17.80 3 15.82Q4.32 13.84 6.98 12.68Q9.64 11.52 13.48 11.52L13.48 11.52Q16.16 11.52 18.72 12.16Q21.28 12.80 23.20 14L23.20 14L21.20 18.92Q17.32 16.72 13.44 16.72L13.44 16.72Q10.72 16.72 9.42 17.60Q8.12 18.48 8.12 19.92L8.12 19.92Q8.12 21.36 9.62 22.06Q11.12 22.76 14.20 23.44L14.20 23.44Q17.40 24.20 19.44 24.96Q21.48 25.72 22.94 27.36Q24.40 29 24.40 31.80L24.40 31.80Q24.40 34.20 23.06 36.18Q21.72 38.16 19.04 39.32Q16.36 40.48 12.52 40.48L12.52 40.48Z M40.96 12Q44.68 12 47.42 13.24Q50.16 14.48 51.64 16.76Q53.12 19.04 53.12 22.16L53.12 22.16Q53.12 25.24 51.64 27.54Q50.16 29.84 47.42 31.06Q44.68 32.28 40.96 32.28L40.96 32.28L35.32 32.28L35.32 40L28.84 40L28.84 12L40.96 12ZM40.60 27Q43.52 27 45.04 25.74Q46.56 24.48 46.56 22.16L46.56 22.16Q46.56 19.80 45.04 18.54Q43.52 17.28 40.60 17.28L40.60 17.28L35.32 17.28L35.32 27L40.60 27Z M64.16 34.80L79.40 34.80L79.40 40L57.72 40L57.72 12L78.88 12L78.88 17.20L64.16 17.20L64.16 23.28L77.16 23.28L77.16 28.32L64.16 28.32L64.16 34.80Z M97.88 40.48Q93.60 40.48 90.14 38.62Q86.68 36.76 84.70 33.46Q82.72 30.16 82.72 26L82.72 26Q82.72 21.84 84.70 18.54Q86.68 15.24 90.14 13.38Q93.60 11.52 97.92 11.52L97.92 11.52Q101.56 11.52 104.50 12.80Q107.44 14.08 109.44 16.48L109.44 16.48L105.28 20.32Q102.44 17.04 98.24 17.04L98.24 17.04Q95.64 17.04 93.60 18.18Q91.56 19.32 90.42 21.36Q89.28 23.40 89.28 26L89.28 26Q89.28 28.60 90.42 30.64Q91.56 32.68 93.60 33.82Q95.64 34.96 98.24 34.96L98.24 34.96Q102.44 34.96 105.28 31.64L105.28 31.64L109.44 35.48Q107.44 37.92 104.48 39.20Q101.52 40.48 97.88 40.48L97.88 40.48Z M119.32 40L119.32 17.28L110.36 17.28L110.36 12L134.76 12L134.76 17.28L125.80 17.28L125.80 40L119.32 40Z M157.76 40L155.28 34L142.28 34L139.80 40L133.16 40L145.64 12L152.04 12L164.56 40L157.76 40ZM144.36 29.08L153.24 29.08L148.80 18.36L144.36 29.08Z M171.88 40L171.88 17.28L162.92 17.28L162.92 12L187.32 12L187.32 17.28L178.36 17.28L178.36 40L171.88 40Z M203.96 40.48Q199.60 40.48 196.10 38.60Q192.60 36.72 190.62 33.42Q188.64 30.12 188.64 26L188.64 26Q188.64 21.88 190.62 18.58Q192.60 15.28 196.10 13.40Q199.60 11.52 203.96 11.52L203.96 11.52Q208.32 11.52 211.80 13.40Q215.28 15.28 217.28 18.58Q219.28 21.88 219.28 26L219.28 26Q219.28 30.12 217.28 33.42Q215.28 36.72 211.80 38.60Q208.32 40.48 203.96 40.48L203.96 40.48ZM203.96 34.96Q206.44 34.96 208.44 33.82Q210.44 32.68 211.58 30.64Q212.72 28.60 212.72 26L212.72 26Q212.72 23.40 211.58 21.36Q210.44 19.32 208.44 18.18Q206.44 17.04 203.96 17.04L203.96 17.04Q201.48 17.04 199.48 18.18Q197.48 19.32 196.34 21.36Q195.20 23.40 195.20 26L195.20 26Q195.20 28.60 196.34 30.64Q197.48 32.68 199.48 33.82Q201.48 34.96 203.96 34.96L203.96 34.96Z M248.96 40L242.00 40L236.60 32.20L236.28 32.20L230.64 32.20L230.64 40L224.16 40L224.16 12L236.28 12Q240.00 12 242.74 13.24Q245.48 14.48 246.96 16.76Q248.44 19.04 248.44 22.16L248.44 22.16Q248.44 25.28 246.94 27.54Q245.44 29.80 242.68 31L242.68 31L248.96 40ZM241.88 22.16Q241.88 19.80 240.36 18.54Q238.84 17.28 235.92 17.28L235.92 17.28L230.64 17.28L230.64 27.04L235.92 27.04Q238.84 27.04 240.36 25.76Q241.88 24.48 241.88 22.16L241.88 22.16Z"/></g>
</svg>
</g><g opacity="1" transform="rotate(0 181.0538 260.6805)">
<svg width="415.7699" height="20" x="181.0538" y="260.6805" version="1.1" preserveAspectRatio="none" viewBox="4.2 -30.28 795.96 38.28">
  <g transform="matrix(1 0 0 1 0 0)" class="text"><path id="id-D-YM9nyY437" d="M23.04-14.52Q25.48-13.84 26.88-12.06Q28.28-10.28 28.28-7.56L28.28-7.56Q28.28-3.92 25.54-1.96Q22.80 0 17.56 0L17.56 0L4.20 0L4.20-28L16.76-28Q21.56-28 24.18-26.08Q26.80-24.16 26.80-20.76L26.80-20.76Q26.80-18.56 25.78-16.96Q24.76-15.36 23.04-14.52L23.04-14.52ZM16.40-24.76L8.20-24.76L8.20-15.80L16.40-15.80Q19.48-15.80 21.14-16.94Q22.80-18.08 22.80-20.28L22.80-20.28Q22.80-22.48 21.14-23.62Q19.48-24.76 16.40-24.76L16.40-24.76ZM17.40-3.24Q20.80-3.24 22.52-4.36Q24.24-5.48 24.24-7.88L24.24-7.88Q24.24-12.56 17.40-12.56L17.40-12.56L8.20-12.56L8.20-3.24L17.40-3.24Z M54.28-10.48Q54.28-10.04 54.20-9.32L54.20-9.32L37-9.32Q37.36-6.52 39.46-4.82Q41.56-3.12 44.68-3.12L44.68-3.12Q48.48-3.12 50.80-5.68L50.80-5.68L52.92-3.20Q51.48-1.52 49.34-0.64Q47.20 0.24 44.56 0.24L44.56 0.24Q41.20 0.24 38.60-1.14Q36-2.52 34.58-5Q33.16-7.48 33.16-10.60L33.16-10.60Q33.16-13.68 34.54-16.16Q35.92-18.64 38.34-20.02Q40.76-21.40 43.80-21.40L43.80-21.40Q46.84-21.40 49.22-20.02Q51.60-18.64 52.94-16.16Q54.28-13.68 54.28-10.48L54.28-10.48ZM43.80-18.16Q41.04-18.16 39.18-16.48Q37.32-14.80 37-12.08L37-12.08L50.60-12.08Q50.28-14.76 48.42-16.46Q46.56-18.16 43.80-18.16L43.80-18.16Z M66.88 0.24Q64.28 0.24 61.88-0.46Q59.48-1.16 58.12-2.24L58.12-2.24L59.72-5.28Q61.12-4.28 63.12-3.68Q65.12-3.08 67.16-3.08L67.16-3.08Q72.20-3.08 72.20-5.96L72.20-5.96Q72.20-6.92 71.52-7.48Q70.84-8.04 69.82-8.30Q68.80-8.56 66.92-8.88L66.92-8.88Q64.36-9.28 62.74-9.80Q61.12-10.32 59.96-11.56Q58.80-12.80 58.80-15.04L58.80-15.04Q58.80-17.92 61.20-19.66Q63.60-21.40 67.64-21.40L67.64-21.40Q69.76-21.40 71.88-20.88Q74-20.36 75.36-19.48L75.36-19.48L73.72-16.44Q71.12-18.12 67.60-18.12L67.60-18.12Q65.16-18.12 63.88-17.32Q62.60-16.52 62.60-15.20L62.60-15.20Q62.60-14.16 63.32-13.56Q64.04-12.96 65.10-12.68Q66.16-12.40 68.08-12.04L68.08-12.04Q70.64-11.60 72.22-11.10Q73.80-10.60 74.92-9.40Q76.04-8.20 76.04-6.04L76.04-6.04Q76.04-3.16 73.58-1.46Q71.12 0.24 66.88 0.24L66.88 0.24Z M92.76-4L93.96-1.24Q93.12-0.52 91.88-0.14Q90.64 0.24 89.32 0.24L89.32 0.24Q86.12 0.24 84.36-1.48Q82.60-3.20 82.60-6.40L82.60-6.40L82.60-18.04L79-18.04L79-21.20L82.60-21.20L82.60-25.84L86.44-25.84L86.44-21.20L92.52-21.20L92.52-18.04L86.44-18.04L86.44-6.56Q86.44-4.84 87.30-3.92Q88.16-3 89.76-3L89.76-3Q91.52-3 92.76-4L92.76-4Z M148.08-28L151.88-28L142.52 0L138.32 0L130.68-22.36L123.04 0L118.76 0L109.40-28L113.52-28L121.08-5.24L128.96-28L132.64-28L140.36-5.12L148.08-28Z M163.52-21.40Q167.92-21.40 170.26-19.24Q172.60-17.08 172.60-12.80L172.60-12.80L172.60 0L168.96 0L168.96-2.80Q168.00-1.32 166.22-0.54Q164.44 0.24 162.00 0.24L162.00 0.24Q158.44 0.24 156.30-1.48Q154.16-3.20 154.16-6L154.16-6Q154.16-8.80 156.20-10.50Q158.24-12.20 162.68-12.20L162.68-12.20L168.76-12.20L168.76-12.96Q168.76-15.44 167.32-16.76Q165.88-18.08 163.08-18.08L163.08-18.08Q161.20-18.08 159.40-17.46Q157.60-16.84 156.36-15.80L156.36-15.80L154.76-18.68Q156.40-20 158.68-20.70Q160.96-21.40 163.52-21.40L163.52-21.40ZM162.64-2.72Q164.84-2.72 166.44-3.70Q168.04-4.68 168.76-6.48L168.76-6.48L168.76-9.44L162.84-9.44Q157.96-9.44 157.96-6.16L157.96-6.16Q157.96-4.56 159.20-3.64Q160.44-2.72 162.64-2.72L162.64-2.72Z M195.52-21.20L199.28-21.20L189.00 2.12Q187.64 5.36 185.82 6.68Q184.00 8 181.44 8L181.44 8Q179.88 8 178.42 7.50Q176.96 7 176.00 6.04L176.00 6.04L177.64 3.16Q179.28 4.72 181.44 4.72L181.44 4.72Q182.84 4.72 183.78 3.98Q184.72 3.24 185.48 1.44L185.48 1.44L186.16-0.04L176.80-21.20L180.80-21.20L188.20-4.24L195.52-21.20Z M226.76-4L227.96-1.24Q227.12-0.52 225.88-0.14Q224.64 0.24 223.32 0.24L223.32 0.24Q220.12 0.24 218.36-1.48Q216.60-3.20 216.60-6.40L216.60-6.40L216.60-18.04L213.00-18.04L213.00-21.20L216.60-21.20L216.60-25.84L220.44-25.84L220.44-21.20L226.52-21.20L226.52-18.04L220.44-18.04L220.44-6.56Q220.44-4.84 221.30-3.92Q222.16-3 223.76-3L223.76-3Q225.52-3 226.76-4L226.76-4Z M242.16 0.24Q239.00 0.24 236.48-1.16Q233.96-2.56 232.54-5.02Q231.12-7.48 231.12-10.60L231.12-10.60Q231.12-13.72 232.54-16.18Q233.96-18.64 236.48-20.02Q239.00-21.40 242.16-21.40L242.16-21.40Q245.32-21.40 247.82-20.02Q250.32-18.64 251.74-16.18Q253.16-13.72 253.16-10.60L253.16-10.60Q253.16-7.48 251.74-5.02Q250.32-2.56 247.82-1.16Q245.32 0.24 242.16 0.24L242.16 0.24ZM242.16-3.12Q244.20-3.12 245.82-4.06Q247.44-5 248.36-6.70Q249.28-8.40 249.28-10.60L249.28-10.60Q249.28-12.80 248.36-14.50Q247.44-16.20 245.82-17.12Q244.20-18.04 242.16-18.04L242.16-18.04Q240.12-18.04 238.50-17.12Q236.88-16.20 235.94-14.50Q235.00-12.80 235.00-10.60L235.00-10.60Q235.00-8.40 235.94-6.70Q236.88-5 238.50-4.06Q240.12-3.12 242.16-3.12L242.16-3.12Z M282.36-4L283.56-1.24Q282.72-0.52 281.48-0.14Q280.24 0.24 278.92 0.24L278.92 0.24Q275.72 0.24 273.96-1.48Q272.20-3.20 272.20-6.40L272.20-6.40L272.20-18.04L268.60-18.04L268.60-21.20L272.20-21.20L272.20-25.84L276.04-25.84L276.04-21.20L282.12-21.20L282.12-18.04L276.04-18.04L276.04-6.56Q276.04-4.84 276.90-3.92Q277.76-3 279.36-3L279.36-3Q281.12-3 282.36-4L282.36-4Z M307.84-10.48Q307.84-10.04 307.76-9.32L307.76-9.32L290.56-9.32Q290.92-6.52 293.02-4.82Q295.12-3.12 298.24-3.12L298.24-3.12Q302.04-3.12 304.36-5.68L304.36-5.68L306.48-3.20Q305.04-1.52 302.90-0.64Q300.76 0.24 298.12 0.24L298.12 0.24Q294.76 0.24 292.16-1.14Q289.56-2.52 288.14-5Q286.72-7.48 286.72-10.60L286.72-10.60Q286.72-13.68 288.10-16.16Q289.48-18.64 291.90-20.02Q294.32-21.40 297.36-21.40L297.36-21.40Q300.40-21.40 302.78-20.02Q305.16-18.64 306.50-16.16Q307.84-13.68 307.84-10.48L307.84-10.48ZM297.36-18.16Q294.60-18.16 292.74-16.48Q290.88-14.80 290.56-12.08L290.56-12.08L304.16-12.08Q303.84-14.76 301.98-16.46Q300.12-18.16 297.36-18.16L297.36-18.16Z M320.44 0.24Q317.84 0.24 315.44-0.46Q313.04-1.16 311.68-2.24L311.68-2.24L313.28-5.28Q314.68-4.28 316.68-3.68Q318.68-3.08 320.72-3.08L320.72-3.08Q325.76-3.08 325.76-5.96L325.76-5.96Q325.76-6.92 325.08-7.48Q324.40-8.04 323.38-8.30Q322.36-8.56 320.48-8.88L320.48-8.88Q317.92-9.28 316.30-9.80Q314.68-10.32 313.52-11.56Q312.36-12.80 312.36-15.04L312.36-15.04Q312.36-17.92 314.76-19.66Q317.16-21.40 321.20-21.40L321.20-21.40Q323.32-21.40 325.44-20.88Q327.56-20.36 328.92-19.48L328.92-19.48L327.28-16.44Q324.68-18.12 321.16-18.12L321.16-18.12Q318.72-18.12 317.44-17.32Q316.16-16.52 316.16-15.20L316.16-15.20Q316.16-14.16 316.88-13.56Q317.60-12.96 318.66-12.68Q319.72-12.40 321.64-12.04L321.64-12.04Q324.20-11.60 325.78-11.10Q327.36-10.60 328.48-9.40Q329.60-8.20 329.60-6.04L329.60-6.04Q329.60-3.16 327.14-1.46Q324.68 0.24 320.44 0.24L320.44 0.24Z M346.32-4L347.52-1.24Q346.68-0.52 345.44-0.14Q344.20 0.24 342.88 0.24L342.88 0.24Q339.68 0.24 337.92-1.48Q336.16-3.20 336.16-6.40L336.16-6.40L336.16-18.04L332.56-18.04L332.56-21.20L336.16-21.20L336.16-25.84L340.00-25.84L340.00-21.20L346.08-21.20L346.08-18.04L340.00-18.04L340.00-6.56Q340.00-4.84 340.86-3.92Q341.72-3 343.32-3L343.32-3Q345.08-3 346.32-4L346.32-4Z M380.32-21.20L384.08-21.20L373.80 2.12Q372.44 5.36 370.62 6.68Q368.80 8 366.24 8L366.24 8Q364.68 8 363.22 7.50Q361.76 7 360.80 6.04L360.80 6.04L362.44 3.16Q364.08 4.72 366.24 4.72L366.24 4.72Q367.64 4.72 368.58 3.98Q369.52 3.24 370.28 1.44L370.28 1.44L370.96-0.04L361.60-21.20L365.60-21.20L373.00-4.24L380.32-21.20Z M397.36 0.24Q394.20 0.24 391.68-1.16Q389.16-2.56 387.74-5.02Q386.32-7.48 386.32-10.60L386.32-10.60Q386.32-13.72 387.74-16.18Q389.16-18.64 391.68-20.02Q394.20-21.40 397.36-21.40L397.36-21.40Q400.52-21.40 403.02-20.02Q405.52-18.64 406.94-16.18Q408.36-13.72 408.36-10.60L408.36-10.60Q408.36-7.48 406.94-5.02Q405.52-2.56 403.02-1.16Q400.52 0.24 397.36 0.24L397.36 0.24ZM397.36-3.12Q399.40-3.12 401.02-4.06Q402.64-5 403.56-6.70Q404.48-8.40 404.48-10.60L404.48-10.60Q404.48-12.80 403.56-14.50Q402.64-16.20 401.02-17.12Q399.40-18.04 397.36-18.04L397.36-18.04Q395.32-18.04 393.70-17.12Q392.08-16.20 391.14-14.50Q390.20-12.80 390.20-10.60L390.20-10.60Q390.20-8.40 391.14-6.70Q392.08-5 393.70-4.06Q395.32-3.12 397.36-3.12L397.36-3.12Z M430.80-21.20L434.64-21.20L434.64 0L431.00 0L431.00-3.20Q429.84-1.56 427.94-0.66Q426.04 0.24 423.80 0.24L423.80 0.24Q419.56 0.24 417.12-2.10Q414.68-4.44 414.68-9L414.68-9L414.68-21.20L418.52-21.20L418.52-9.44Q418.52-6.36 420.00-4.78Q421.48-3.20 424.24-3.20L424.24-3.20Q427.28-3.20 429.04-5.04Q430.80-6.88 430.80-10.24L430.80-10.24L430.80-21.20Z M446.84-17.64Q447.84-19.48 449.80-20.44Q451.76-21.40 454.56-21.40L454.56-21.40L454.56-17.68Q454.24-17.72 453.68-17.72L453.68-17.72Q450.56-17.72 448.78-15.86Q447.00-14 447.00-10.56L447.00-10.56L447.00 0L443.16 0L443.16-21.20L446.84-21.20L446.84-17.64Z M480.44-21.40Q484.84-21.40 487.18-19.24Q489.52-17.08 489.52-12.80L489.52-12.80L489.52 0L485.88 0L485.88-2.80Q484.92-1.32 483.14-0.54Q481.36 0.24 478.92 0.24L478.92 0.24Q475.36 0.24 473.22-1.48Q471.08-3.20 471.08-6L471.08-6Q471.08-8.80 473.12-10.50Q475.16-12.20 479.60-12.20L479.60-12.20L485.68-12.20L485.68-12.96Q485.68-15.44 484.24-16.76Q482.80-18.08 480.00-18.08L480.00-18.08Q478.12-18.08 476.32-17.46Q474.52-16.84 473.28-15.80L473.28-15.80L471.68-18.68Q473.32-20 475.60-20.70Q477.88-21.40 480.44-21.40L480.44-21.40ZM479.56-2.72Q481.76-2.72 483.36-3.70Q484.96-4.68 485.68-6.48L485.68-6.48L485.68-9.44L479.76-9.44Q474.88-9.44 474.88-6.16L474.88-6.16Q474.88-4.56 476.12-3.64Q477.36-2.72 479.56-2.72L479.56-2.72Z M509.08-21.40Q512.16-21.40 514.60-20.04Q517.04-18.68 518.42-16.24Q519.80-13.80 519.80-10.60L519.80-10.60Q519.80-7.40 518.42-4.94Q517.04-2.48 514.60-1.12Q512.16 0.24 509.08 0.24L509.08 0.24Q506.80 0.24 504.90-0.64Q503.00-1.52 501.68-3.20L501.68-3.20L501.68 7.76L497.84 7.76L497.84-21.20L501.52-21.20L501.52-17.84Q502.80-19.60 504.76-20.50Q506.72-21.40 509.08-21.40L509.08-21.40ZM508.76-3.12Q510.80-3.12 512.42-4.06Q514.04-5 514.98-6.70Q515.92-8.40 515.92-10.60L515.92-10.60Q515.92-12.80 514.98-14.50Q514.04-16.20 512.42-17.12Q510.80-18.04 508.76-18.04L508.76-18.04Q506.76-18.04 505.14-17.10Q503.52-16.16 502.58-14.48Q501.64-12.80 501.64-10.60L501.64-10.60Q501.64-8.40 502.56-6.70Q503.48-5 505.12-4.06Q506.76-3.12 508.76-3.12L508.76-3.12Z M526.32 0L526.32-21.20L530.16-21.20L530.16 0L526.32 0ZM528.24-25.28Q527.12-25.28 526.38-26Q525.64-26.72 525.64-27.76L525.64-27.76Q525.64-28.80 526.38-29.54Q527.12-30.28 528.24-30.28L528.24-30.28Q529.36-30.28 530.10-29.58Q530.84-28.88 530.84-27.84L530.84-27.84Q530.84-26.76 530.10-26.02Q529.36-25.28 528.24-25.28L528.24-25.28Z M544.76 0.24Q542.16 0.24 539.76-0.46Q537.36-1.16 536.00-2.24L536.00-2.24L537.60-5.28Q539.00-4.28 541.00-3.68Q543.00-3.08 545.04-3.08L545.04-3.08Q550.08-3.08 550.08-5.96L550.08-5.96Q550.08-6.92 549.40-7.48Q548.72-8.04 547.70-8.30Q546.68-8.56 544.80-8.88L544.80-8.88Q542.24-9.28 540.62-9.80Q539.00-10.32 537.84-11.56Q536.68-12.80 536.68-15.04L536.68-15.04Q536.68-17.92 539.08-19.66Q541.48-21.40 545.52-21.40L545.52-21.40Q547.64-21.40 549.76-20.88Q551.88-20.36 553.24-19.48L553.24-19.48L551.60-16.44Q549.00-18.12 545.48-18.12L545.48-18.12Q543.04-18.12 541.76-17.32Q540.48-16.52 540.48-15.20L540.48-15.20Q540.48-14.16 541.20-13.56Q541.92-12.96 542.98-12.68Q544.04-12.40 545.96-12.04L545.96-12.04Q548.52-11.60 550.10-11.10Q551.68-10.60 552.80-9.40Q553.92-8.20 553.92-6.04L553.92-6.04Q553.92-3.16 551.46-1.46Q549.00 0.24 544.76 0.24L544.76 0.24Z M579.60-21.40Q584.00-21.40 586.34-19.24Q588.68-17.08 588.68-12.80L588.68-12.80L588.68 0L585.04 0L585.04-2.80Q584.08-1.32 582.30-0.54Q580.52 0.24 578.08 0.24L578.08 0.24Q574.52 0.24 572.38-1.48Q570.24-3.20 570.24-6L570.24-6Q570.24-8.80 572.28-10.50Q574.32-12.20 578.76-12.20L578.76-12.20L584.84-12.20L584.84-12.96Q584.84-15.44 583.40-16.76Q581.96-18.08 579.16-18.08L579.16-18.08Q577.28-18.08 575.48-17.46Q573.68-16.84 572.44-15.80L572.44-15.80L570.84-18.68Q572.48-20 574.76-20.70Q577.04-21.40 579.60-21.40L579.60-21.40ZM578.72-2.72Q580.92-2.72 582.52-3.70Q584.12-4.68 584.84-6.48L584.84-6.48L584.84-9.44L578.92-9.44Q574.04-9.44 574.04-6.16L574.04-6.16Q574.04-4.56 575.28-3.64Q576.52-2.72 578.72-2.72L578.72-2.72Z M608.32-21.40Q612.36-21.40 614.74-19.06Q617.12-16.72 617.12-12.20L617.12-12.20L617.12 0L613.28 0L613.28-11.76Q613.28-14.84 611.80-16.40Q610.32-17.96 607.56-17.96L607.56-17.96Q604.44-17.96 602.64-16.14Q600.84-14.32 600.84-10.92L600.84-10.92L600.84 0L597.00 0L597.00-21.20L600.68-21.20L600.68-18Q601.84-19.64 603.82-20.52Q605.80-21.40 608.32-21.40L608.32-21.40Z M641.72-29.68L645.56-29.68L645.56 0L641.88 0L641.88-3.36Q640.60-1.60 638.64-0.68Q636.68 0.24 634.32 0.24L634.32 0.24Q631.24 0.24 628.80-1.12Q626.36-2.48 624.98-4.94Q623.60-7.40 623.60-10.60L623.60-10.60Q623.60-13.80 624.98-16.24Q626.36-18.68 628.80-20.04Q631.24-21.40 634.32-21.40L634.32-21.40Q636.60-21.40 638.52-20.54Q640.44-19.68 641.72-18L641.72-18L641.72-29.68ZM634.64-3.12Q636.64-3.12 638.28-4.06Q639.92-5 640.84-6.70Q641.76-8.40 641.76-10.60L641.76-10.60Q641.76-12.80 640.84-14.50Q639.92-16.20 638.28-17.12Q636.64-18.04 634.64-18.04L634.64-18.04Q632.60-18.04 630.98-17.12Q629.36-16.20 628.42-14.50Q627.48-12.80 627.48-10.60L627.48-10.60Q627.48-8.40 628.42-6.70Q629.36-5 630.98-4.06Q632.60-3.12 634.64-3.12L634.64-3.12Z M672.08 0.24Q669.48 0.24 667.08-0.46Q664.68-1.16 663.32-2.24L663.32-2.24L664.92-5.28Q666.32-4.28 668.32-3.68Q670.32-3.08 672.36-3.08L672.36-3.08Q677.40-3.08 677.40-5.96L677.40-5.96Q677.40-6.92 676.72-7.48Q676.04-8.04 675.02-8.30Q674-8.56 672.12-8.88L672.12-8.88Q669.56-9.28 667.94-9.80Q666.32-10.32 665.16-11.56Q664-12.80 664-15.04L664-15.04Q664-17.92 666.40-19.66Q668.80-21.40 672.84-21.40L672.84-21.40Q674.96-21.40 677.08-20.88Q679.20-20.36 680.56-19.48L680.56-19.48L678.92-16.44Q676.32-18.12 672.80-18.12L672.80-18.12Q670.36-18.12 669.08-17.32Q667.80-16.52 667.80-15.20L667.80-15.20Q667.80-14.16 668.52-13.56Q669.24-12.96 670.30-12.68Q671.36-12.40 673.28-12.04L673.28-12.04Q675.84-11.60 677.42-11.10Q679-10.60 680.12-9.40Q681.24-8.20 681.24-6.04L681.24-6.04Q681.24-3.16 678.78-1.46Q676.32 0.24 672.08 0.24L672.08 0.24Z M696.32 0.24Q693.16 0.24 690.64-1.16Q688.12-2.56 686.70-5.02Q685.28-7.48 685.28-10.60L685.28-10.60Q685.28-13.72 686.70-16.18Q688.12-18.64 690.64-20.02Q693.16-21.40 696.32-21.40L696.32-21.40Q699.48-21.40 701.98-20.02Q704.48-18.64 705.90-16.18Q707.32-13.72 707.32-10.60L707.32-10.60Q707.32-7.48 705.90-5.02Q704.48-2.56 701.98-1.16Q699.48 0.24 696.32 0.24L696.32 0.24ZM696.32-3.12Q698.36-3.12 699.98-4.06Q701.60-5 702.52-6.70Q703.44-8.40 703.44-10.60L703.44-10.60Q703.44-12.80 702.52-14.50Q701.60-16.20 699.98-17.12Q698.36-18.04 696.32-18.04L696.32-18.04Q694.28-18.04 692.66-17.12Q691.04-16.20 690.10-14.50Q689.16-12.80 689.16-10.60L689.16-10.60Q689.16-8.40 690.10-6.70Q691.04-5 692.66-4.06Q694.28-3.12 696.32-3.12L696.32-3.12Z M723.08 0.24Q719.84 0.24 717.30-1.16Q714.76-2.56 713.32-5.02Q711.88-7.48 711.88-10.60L711.88-10.60Q711.88-13.72 713.32-16.18Q714.76-18.64 717.30-20.02Q719.84-21.40 723.08-21.40L723.08-21.40Q725.96-21.40 728.22-20.24Q730.48-19.08 731.72-16.88L731.72-16.88L728.80-15Q727.80-16.52 726.32-17.28Q724.84-18.04 723.04-18.04L723.04-18.04Q720.96-18.04 719.30-17.12Q717.64-16.20 716.70-14.50Q715.76-12.80 715.76-10.60L715.76-10.60Q715.76-8.36 716.70-6.66Q717.64-4.96 719.30-4.04Q720.96-3.12 723.04-3.12L723.04-3.12Q724.84-3.12 726.32-3.88Q727.80-4.64 728.80-6.16L728.80-6.16L731.72-4.32Q730.48-2.12 728.22-0.94Q725.96 0.24 723.08 0.24L723.08 0.24Z M753.80 0L745.84-9.88L741.44-5.80L741.44 0L737.60 0L737.60-29.68L741.44-29.68L741.44-10.64L753.00-21.20L757.64-21.20L748.72-12.44L758.52 0L753.80 0Z M781.72-10.48Q781.72-10.04 781.64-9.32L781.64-9.32L764.44-9.32Q764.80-6.52 766.90-4.82Q769.00-3.12 772.12-3.12L772.12-3.12Q775.92-3.12 778.24-5.68L778.24-5.68L780.36-3.20Q778.92-1.52 776.78-0.64Q774.64 0.24 772.00 0.24L772.00 0.24Q768.64 0.24 766.04-1.14Q763.44-2.52 762.02-5Q760.60-7.48 760.60-10.60L760.60-10.60Q760.60-13.68 761.98-16.16Q763.36-18.64 765.78-20.02Q768.20-21.40 771.24-21.40L771.24-21.40Q774.28-21.40 776.66-20.02Q779.04-18.64 780.38-16.16Q781.72-13.68 781.72-10.48L781.72-10.48ZM771.24-18.16Q768.48-18.16 766.62-16.48Q764.76-14.80 764.44-12.08L764.44-12.08L778.04-12.08Q777.72-14.76 775.86-16.46Q774.00-18.16 771.24-18.16L771.24-18.16Z M798.96-4L800.16-1.24Q799.32-0.52 798.08-0.14Q796.84 0.24 795.52 0.24L795.52 0.24Q792.32 0.24 790.56-1.48Q788.80-3.20 788.80-6.40L788.80-6.40L788.80-18.04L785.20-18.04L785.20-21.20L788.80-21.20L788.80-25.84L792.64-25.84L792.64-21.20L798.72-21.20L798.72-18.04L792.64-18.04L792.64-6.56Q792.64-4.84 793.50-3.92Q794.36-3 795.96-3L795.96-3Q797.72-3 798.96-4L798.96-4Z"/></g>
</svg>
</g></svg></svg>